<svg width="24" height="25" viewBox="0 0 24 25" fill="none" xmlns="http://www.w3.org/2000/svg">
<path d="M12.0001 12.8C14.1505 12.8 15.9001 11.0504 15.9001 8.9C15.9001 6.7496 14.1505 5 12.0001 5C9.8497 5 8.1001 6.7496 8.1001 8.9C8.1001 11.0504 9.8497 12.8 12.0001 12.8ZM12.0001 7.4C12.8269 7.4 13.5001 8.0732 13.5001 8.9C13.5001 9.7268 12.8269 10.4 12.0001 10.4C11.1733 10.4 10.5001 9.7268 10.5001 8.9C10.5001 8.0732 11.1733 7.4 12.0001 7.4Z" fill="currentColor"/>
<path d="M12 0.5C5.3724 0.5 0 5.8724 0 12.5C0 19.1276 5.3724 24.5 12 24.5C18.6276 24.5 24 19.1276 24 12.5C24 5.8724 18.6276 0.5 12 0.5ZM12 22.1C6.6984 22.1 2.4 17.8016 2.4 12.5C2.4 7.1984 6.6984 2.9 12 2.9C17.3016 2.9 21.6 7.1984 21.6 12.5C21.6 17.8016 17.3016 22.1 12 22.1Z" fill="currentColor"/>
<path d="M5.33861 19.4059C6.27461 18.7039 8.27621 17.2999 11.9998 17.2999C15.7234 17.2999 17.725 18.7039 18.661 19.4059C18.8902 19.1851 19.1122 18.9547 19.321 18.7099L20.1346 17.7511L19.1398 16.9819C17.2774 15.5455 13.8442 14.8999 11.9998 14.8999C10.1554 14.8999 6.72221 15.5455 4.86101 16.9819L3.86621 17.7511L4.67981 18.7099C4.88741 18.9547 5.10941 19.1851 5.33861 19.4059Z" fill="currentColor"/>
</svg>
